
<svg width="24" height="24" viewBox="0 0 24 24" fill="none" xmlns="http://www.w3.org/2000/svg">
<circle cx="12" cy="12" r="10" stroke="black" stroke-width="1.5"/>
<path d="M19.4494 18.6714L18.9368 19.2188L19.4963 19.7429L20.008 19.1719L19.4494 18.6714ZM4.55056 18.6714L3.99203 19.172L4.50371 19.7429L5.06327 19.2188L4.55056 18.6714ZM21.25 12C21.25 14.3717 20.3584 16.5333 18.8909 18.1709L20.008 19.1719C21.7125 17.27 22.75 14.7553 22.75 12H21.25ZM12 2.75C17.1086 2.75 21.25 6.89137 21.25 12H22.75C22.75 6.06294 17.9371 1.25 12 1.25V2.75ZM2.75 12C2.75 6.89137 6.89137 2.75 12 2.75V1.25C6.06294 1.25 1.25 6.06294 1.25 12H2.75ZM5.1091 18.1709C3.6416 16.5333 2.75 14.3717 2.75 12H1.25C1.25 14.7553 2.28753 17.27 3.99203 19.172L5.1091 18.1709ZM5.06327 19.2188C5.60544 18.711 6.69892 18.2201 8.05611 17.858C9.38406 17.5038 10.8395 17.3056 11.9997 17.3056V15.8056C10.6936 15.8056 9.10785 16.0251 7.66953 16.4087C6.26046 16.7846 4.86254 17.3516 4.03785 18.124L5.06327 19.2188ZM11.9997 17.3056C13.16 17.3056 14.6155 17.5038 15.9436 17.8581C17.3009 18.2201 18.3945 18.711 18.9368 19.2188L19.9621 18.124C19.1374 17.3516 17.7393 16.7846 16.3301 16.4087C14.8917 16.0251 13.3058 15.8056 11.9997 15.8056V17.3056Z" fill="black"/>
<circle cx="11.9999" cy="9.44444" r="4.44444" stroke="black" stroke-width="1.5"/>
<circle cx="11.9999" cy="9.44444" r="4.44444" stroke="black" stroke-opacity="0.2" stroke-width="1.5"/>
</svg>
