
<svg width="24" height="24" viewBox="0 0 24 24" fill="none" xmlns="http://www.w3.org/2000/svg">
<path d="M8.99974 19C5.92426 19 3.69745 19 2.25176 17.0909C0.806076 15.1818 5.92428 13.75 8.99976 13.75C12.0752 13.75 17.1942 15.1818 15.7481 17.0909C14.3021 18.9999 12.0752 19 8.99974 19Z" fill="#FD6003"/>
<path fill-rule="evenodd" clip-rule="evenodd" d="M16.8291 16.8143C16.8912 16.8143 16.9536 16.8143 17.0166 16.8143C19.6527 16.8143 21.5614 16.8142 22.8009 15C24.0404 13.1857 19.6527 11.825 17.0166 11.825C15.2625 11.825 12.7332 12.4274 11.6021 13.3651C14.4965 13.7549 17.8516 15.1007 16.8291 16.8143Z" fill="#FD6003"/>
<ellipse cx="8.99997" cy="7.75" rx="3.88889" ry="3.75" fill="#FD6003"/>
<path fill-rule="evenodd" clip-rule="evenodd" d="M13.7269 8.30576C13.7548 8.12442 13.7693 7.93884 13.7693 7.75C13.7693 7.37045 13.7108 7.00407 13.6021 6.65878C13.8872 5.14614 15.2465 4 16.8804 4C18.7213 4 20.2137 5.45507 20.2137 7.25C20.2137 9.04492 18.7213 10.5 16.8804 10.5C15.4185 10.5 14.1764 9.58243 13.7269 8.30576Z" fill="#FD6003"/>
</svg>
