
<svg xmlns="http://www.w3.org/2000/svg" version="1.1" xmlns:xlink="http://www.w3.org/1999/xlink" xmlns:svgjs="http://svgjs.dev/svgjs" width="1500" height="662" viewBox="0 0 1500 662"><g transform="matrix(1,0,0,1,-0.9090909090909918,7.220607910523313)"><svg viewBox="0 0 396 175" data-background-color="#ffffff" preserveAspectRatio="xMidYMid meet" height="662" width="1500" xmlns="http://www.w3.org/2000/svg" xmlns:xlink="http://www.w3.org/1999/xlink"><g id="tight-bounds" transform="matrix(1,0,0,1,0.2400000000000091,0.32016882222892207)"><svg viewBox="0 0 395.52 174.36936822659484" height="174.36936822659484" width="395.52"><g><svg viewBox="0 0 395.52 174.36936822659484" height="174.36936822659484" width="395.52"><g transform="matrix(1,0,0,1,0,106.89622454003333)"><svg viewBox="0 0 395.52 67.47314368656151" height="67.47314368656151" width="395.52"><g id="textblocktransform"><svg viewBox="0 0 395.52 67.47314368656151" height="67.47314368656151" width="395.52" id="textblock"><g><svg viewBox="0 0 395.52 67.47314368656151" height="67.47314368656151" width="395.52"><g transform="matrix(1,0,0,1,0,0)"><svg width="395.52" viewBox="-0.020000000000000018 -45.19 287.59 49.9" height="67.47314368656151" data-palette-color="#fb8e0b"><path d="M36.35-9.55L36.35-9.55Q36.35-8.06 35.86-6.76 35.38-5.47 34.52-4.41 33.67-3.34 32.53-2.51 31.4-1.68 30.09-1.12 28.78-0.56 27.39-0.28 26 0 24.66 0L24.66 0 3.98 0 3.98-35.16 22.88-35.16Q24.12-35.16 25.49-34.97 26.86-34.79 28.16-34.4 29.47-34.01 30.65-33.37 31.84-32.74 32.73-31.82 33.62-30.91 34.14-29.71 34.67-28.52 34.67-26.98L34.67-26.98Q34.67-25.51 34.08-24.32 33.5-23.12 32.51-22.18 31.52-21.24 30.24-20.52 28.96-19.8 27.54-19.26L27.54-19.26Q29.32-18.77 30.92-17.97 32.52-17.16 33.73-15.99 34.94-14.82 35.64-13.22 36.35-11.62 36.35-9.55ZM24.83-26.12L24.83-26.12Q24.83-29.1 23.25-30.47 21.68-31.84 18.77-31.84L18.77-31.84 13.67-31.84 13.67-20.43 17.94-20.43Q19.26-20.43 20.51-20.76 21.75-21.09 22.72-21.79 23.68-22.49 24.26-23.56 24.83-24.63 24.83-26.12ZM26.54-10.16L26.54-10.16Q26.54-11.6 26.17-12.85 25.81-14.11 25.05-15.03 24.29-15.94 23.16-16.47 22.02-16.99 20.48-16.99L20.48-16.99 13.67-16.99 13.67-3.42 19.63-3.42Q21.12-3.42 22.39-3.91 23.66-4.39 24.58-5.27 25.51-6.15 26.03-7.4 26.54-8.64 26.54-10.16ZM39.94-12.06L39.94-12.06Q39.94-13.99 40.27-16.06 40.6-18.14 41.22-20.21 41.84-22.29 42.72-24.32 43.6-26.34 44.7-28.2L44.7-28.2 50.73-28.2Q50.12-26.37 49.64-24.38 49.17-22.39 48.84-20.4 48.51-18.41 48.33-16.5 48.14-14.6 48.14-12.96L48.14-12.96Q48.14-12.01 48.23-10.93 48.31-9.84 48.53-8.75 48.75-7.67 49.16-6.67 49.56-5.66 50.19-4.9 50.83-4.13 51.74-3.67 52.66-3.22 53.9-3.22L53.9-3.22Q55.12-3.22 56.09-3.77 57.05-4.32 57.79-5.21 58.52-6.1 59.03-7.25 59.54-8.4 59.87-9.61 60.2-10.82 60.36-11.98 60.52-13.13 60.52-14.06L60.52-14.06 60.52-28.2 68.77-28.2 68.77 0 65.6 0 61.81-6.57Q61.11-4.93 60.09-3.6 59.08-2.27 57.79-1.32 56.49-0.37 54.92 0.15 53.34 0.66 51.51 0.66L51.51 0.66Q48.58 0.66 46.41-0.29 44.24-1.25 42.8-2.93 41.35-4.61 40.65-6.95 39.94-9.28 39.94-12.06ZM97.99-3.27L97.99 0 74.12 0 74.12-3.27 74.12-3.27 88.89-24.93 74.12-24.93 74.12-28.2 97.99-28.2 97.99-24.93 83.22-3.27 97.99-3.27ZM125.63-3.27L125.63 0 101.75 0 101.75-3.27 101.75-3.27 116.52-24.93 101.75-24.93 101.75-28.2 125.63-28.2 125.63-24.93 110.86-3.27 125.63-3.27ZM163.39-26.44L163.39-26.44 159.22-24.68Q158.73-26.27 157.91-27.59 157.09-28.91 155.96-29.85 154.82-30.79 153.38-31.31 151.94-31.84 150.23-31.84L150.23-31.84Q148.4-31.84 146.88-31.24 145.35-30.64 144.14-29.59 142.93-28.54 142.03-27.15 141.13-25.76 140.52-24.18 139.91-22.61 139.61-20.92 139.32-19.24 139.32-17.63L139.32-17.63Q139.32-15.06 139.92-12.52 140.52-9.99 141.82-7.96 143.13-5.93 145.2-4.68 147.28-3.42 150.23-3.42L150.23-3.42Q151.8-3.42 153.19-3.94 154.58-4.47 155.72-5.38 156.85-6.3 157.7-7.54 158.56-8.79 159.07-10.23L159.07-10.23 163.3-8.54Q162.37-6.23 160.76-4.48 159.15-2.73 157.08-1.59 155.02-0.44 152.66 0.13 150.31 0.71 147.91 0.71L147.91 0.71Q145.33 0.71 142.95 0.07 140.57-0.56 138.52-1.73 136.46-2.91 134.79-4.57 133.12-6.23 131.94-8.25 130.75-10.28 130.1-12.66 129.46-15.04 129.46-17.63L129.46-17.63Q129.46-20.21 130.1-22.6 130.75-24.98 131.94-27.01 133.12-29.05 134.79-30.71 136.46-32.37 138.52-33.54 140.57-34.72 142.95-35.35 145.33-35.99 147.91-35.99L147.91-35.99Q150.41-35.99 152.79-35.4 155.17-34.81 157.22-33.63 159.27-32.45 160.87-30.65 162.47-28.86 163.39-26.44ZM177.18-35.01L177.18-35.01Q177.18-34.08 176.83-33.25 176.48-32.42 175.87-31.81 175.26-31.2 174.43-30.85 173.6-30.49 172.67-30.49L172.67-30.49Q171.74-30.49 170.92-30.85 170.1-31.2 169.49-31.81 168.88-32.42 168.53-33.25 168.18-34.08 168.18-35.01L168.18-35.01Q168.18-35.94 168.53-36.76 168.88-37.57 169.49-38.18 170.1-38.79 170.92-39.15 171.74-39.5 172.67-39.5L172.67-39.5Q173.6-39.5 174.43-39.15 175.26-38.79 175.87-38.18 176.48-37.57 176.83-36.76 177.18-35.94 177.18-35.01ZM176.82-28.17L176.82 0 168.54 0 168.54-28.17 176.82-28.17ZM207.7-25.71L207.7-25.71 203.06-18.02Q202.77-18.99 202.3-20.21 201.84-21.44 201.16-22.5 200.47-23.56 199.52-24.28 198.57-25 197.32-25L197.32-25Q196.18-25 195.33-24.41 194.49-23.83 193.91-22.89 193.32-21.95 192.94-20.76 192.56-19.58 192.36-18.37 192.15-17.16 192.07-16.05 192-14.94 192-14.14L192-14.14 192 0 183.73 0 183.73-28.2 186.9-28.2 190.24-21.63Q190.93-23.22 191.81-24.55 192.69-25.88 193.83-26.84 194.98-27.81 196.43-28.34 197.89-28.88 199.72-28.88L199.72-28.88Q200.67-28.88 201.84-28.72 203.01-28.56 204.14-28.19 205.26-27.81 206.21-27.2 207.16-26.59 207.7-25.71ZM236.43-21.22L236.43-21.22 232.87-19.8Q232.01-22.49 230.01-23.93 228.01-25.37 225.2-25.37L225.2-25.37Q223.69-25.37 222.5-24.89 221.32-24.41 220.43-23.58 219.54-22.75 218.92-21.66 218.29-20.56 217.9-19.31 217.51-18.07 217.34-16.74 217.17-15.41 217.17-14.16L217.17-14.16Q217.17-12.82 217.32-11.45 217.46-10.08 217.82-8.83 218.17-7.57 218.76-6.48 219.34-5.4 220.23-4.59 221.13-3.78 222.36-3.32 223.59-2.86 225.2-2.86L225.2-2.86Q226.5-2.86 227.67-3.25 228.84-3.64 229.82-4.35 230.79-5.05 231.55-6.03 232.31-7.01 232.75-8.2L232.75-8.2 236.34-6.88Q235.53-4.96 234.2-3.55 232.87-2.15 231.18-1.23 229.5-0.32 227.57 0.12 225.64 0.56 223.66 0.56L223.66 0.56Q220.47 0.56 217.73-0.52 215-1.61 213.01-3.58 211.02-5.54 209.89-8.24 208.77-10.94 208.77-14.16L208.77-14.16Q208.77-17.41 209.88-20.12 210.99-22.83 212.97-24.78 214.95-26.73 217.68-27.81 220.42-28.88 223.66-28.88L223.66-28.88Q225.71-28.88 227.67-28.43 229.62-27.98 231.29-27.04 232.97-26.1 234.3-24.66 235.63-23.22 236.43-21.22ZM249.56-32.62L249.56 0 241.31 0 241.31-41.19 244.49-41.19 249.56-32.62ZM263.23-13.38L263.23-13.38Q264.75-13.04 266.26-12.84 267.78-12.65 269.31-12.65L269.31-12.65Q270.92-12.65 272.3-12.95 273.68-13.26 274.7-13.98 275.71-14.7 276.3-15.89 276.88-17.09 276.88-18.87L276.88-18.87Q276.88-20.31 276.49-21.51 276.1-22.71 275.33-23.56 274.56-24.41 273.44-24.89 272.32-25.37 270.83-25.37L270.83-25.37Q269.44-25.37 268.32-24.85 267.21-24.34 266.37-23.47 265.53-22.61 264.93-21.46 264.33-20.31 263.94-19.07 263.55-17.82 263.38-16.55 263.21-15.28 263.21-14.16L263.21-14.16Q263.21-13.96 263.21-13.77 263.21-13.57 263.23-13.38ZM283.57-18.95L283.57-18.95Q283.57-17.21 283.01-15.86 282.45-14.5 281.48-13.48 280.52-12.45 279.25-11.74 277.98-11.04 276.54-10.58 275.1-10.13 273.57-9.94 272.05-9.74 270.61-9.74L270.61-9.74Q268.78-9.74 266.99-10 265.21-10.25 263.48-10.82L263.48-10.82Q263.75-9.2 264.33-7.75 264.92-6.3 265.9-5.21 266.87-4.13 268.3-3.49 269.73-2.86 271.68-2.86L271.68-2.86Q272.98-2.86 274.15-3.25 275.32-3.64 276.3-4.35 277.27-5.05 278.02-6.03 278.76-7.01 279.23-8.2L279.23-8.2 282.79-6.88Q281.98-4.96 280.58-3.55 279.18-2.15 277.41-1.23 275.64-0.32 273.65 0.12 271.66 0.56 269.7 0.56L269.7 0.56Q266.48 0.56 263.75-0.52 261.01-1.61 259.04-3.56 257.06-5.52 255.93-8.23 254.81-10.94 254.81-14.16L254.81-14.16Q254.81-17.38 255.93-20.09 257.06-22.8 259.04-24.76 261.01-26.71 263.75-27.8 266.48-28.88 269.7-28.88L269.7-28.88Q271.27-28.88 272.9-28.66 274.54-28.44 276.08-27.97 277.61-27.49 278.98-26.73 280.35-25.98 281.36-24.87 282.37-23.75 282.97-22.29 283.57-20.83 283.57-18.95Z" opacity="1" transform="matrix(1,0,0,1,0,0)" fill="#fb8e0b" class="wordmark-text-0" data-fill-palette-color="primary" id="text-0"></path></svg></g></svg></g></svg></g></svg></g><g transform="matrix(1,0,0,1,163.0255186835072,0)"><svg viewBox="0 0 69.46896263298561 93.24788457482802" height="93.24788457482802" width="69.46896263298561"><g><svg xmlns="http://www.w3.org/2000/svg" xmlns:xlink="http://www.w3.org/1999/xlink" version="1.1" x="0" y="0" viewBox="19.15 8.16797331724977 62.487 83.87602668275022" enable-background="new 0 0 100 100" xml:space="preserve" height="93.24788457482802" width="69.46896263298561" class="icon-icon-0" data-fill-palette-color="accent" id="icon-0"><g fill="#fb8e0b" data-fill-palette-color="accent"><path d="M72.603 36.514H66.791V32.335A8.53 8.53 0 0 0 68.647 27.02C68.647 22.697 65.436 19.111 61.273 18.519 59.911 13.404 55.19 9.69 49.794 9.69 48.302 9.69 46.816 9.975 45.433 10.521A8.53 8.53 0 0 0 39.529 8.168C35.343 8.168 31.848 11.176 31.094 15.144L31.025 15.143C24.476 15.143 19.15 20.472 19.15 27.02 19.15 29.402 19.861 31.618 21.073 33.479V87.78C21.073 89.642 23.07 90.551 28.707 91.256 32.786 91.763 38.194 92.044 43.933 92.044 49.674 92.044 55.082 91.764 59.156 91.256 64.795 90.552 66.792 89.642 66.792 87.78V77.381H72.604C77.585 77.381 81.637 73.33 81.637 68.35V45.544C81.635 40.563 77.584 36.514 72.603 36.514M31.025 18.364C31.455 18.364 31.889 18.394 32.317 18.459A1.608 1.608 0 0 0 34.166 16.848C34.166 16.818 34.166 16.785 34.162 16.754A5.37 5.37 0 0 1 39.53 11.388C41.194 11.388 42.738 12.143 43.765 13.461A1.61 1.61 0 0 0 45.781 13.896 8.56 8.56 0 0 1 49.795 12.91C54.053 12.91 57.733 16.082 58.356 20.285A1.61 1.61 0 0 0 59.948 21.659H59.969L60.062 21.657A5.37 5.37 0 0 1 65.428 27.022 5.37 5.37 0 0 1 60.062 32.389C60.022 32.389 60.022 32.389 58.504 32.45L57.042 32.51A1.61 1.61 0 0 0 55.482 34.119V56.17A2.505 2.505 0 0 1 52.982 58.672 2.505 2.505 0 0 1 50.479 56.17V31.754A1.616 1.616 0 0 0 48.868 30.144C48.766 30.144 48.66 30.154 48.556 30.176 48.454 30.196 48.313 30.225 48.162 30.273 45.509 30.256 44.382 29.017 42.619 26.409A1.615 1.615 0 0 0 40.833 25.763 1.62 1.62 0 0 0 39.674 27.264 8.605 8.605 0 0 1 31.026 35.675C26.251 35.675 22.367 31.793 22.367 27.018 22.367 22.247 26.25 18.364 31.025 18.364M78.416 68.35A5.82 5.82 0 0 1 72.603 74.163H65.182C64.292 74.163 63.571 74.882 63.571 75.772V87.113C61.667 87.883 54.403 88.823 43.934 88.823S26.2 87.883 24.293 87.113V36.792A11.8 11.8 0 0 0 31.026 38.896C34.139 38.896 37.081 37.7 39.311 35.527A11.86 11.86 0 0 0 42.194 31.068C43.469 32.345 45.02 33.251 47.26 33.453V56.17A5.727 5.727 0 0 0 52.983 61.891 5.73 5.73 0 0 0 58.703 56.17V35.663C59.338 35.635 59.96 35.61 60.095 35.604A8.5 8.5 0 0 0 63.571 34.847V38.121C63.571 39.01 64.293 39.732 65.182 39.732H72.603A5.82 5.82 0 0 1 78.416 45.543z" fill="#fb8e0b" data-fill-palette-color="accent"></path><path d="M71.304 42.674H65.181A1.61 1.61 0 0 0 63.57 44.284V69.86C63.57 70.748 64.292 71.47 65.181 71.47H70.977C74.304 71.47 75.722 70.038 75.722 66.687V48.749C75.722 47.088 75.722 42.674 71.304 42.674M72.505 66.688C72.505 67.844 72.328 68.064 72.323 68.071 72.313 68.079 72.096 68.252 70.976 68.252H66.79V45.895H71.303C71.973 45.895 72.504 45.895 72.504 48.749z" fill="#fb8e0b" data-fill-palette-color="accent"></path></g></svg></g></svg></g><g></g></svg></g><defs></defs></svg><rect width="395.52" height="174.36936822659484" fill="none" stroke="none" visibility="hidden"></rect></g></svg></g></svg>